<svg id="visual" viewBox="0 0 1920 1080" width="1920" height="1080" xmlns="http://www.w3.org/2000/svg" xmlns:xlink="http://www.w3.org/1999/xlink" version="1.1"><g><g transform="translate(599 1006)"><path d="M16 -0.2C16 7.9 8 15.8 -0.1 15.8C-8.2 15.8 -16.4 7.9 -16.4 -0.2C-16.4 -8.3 -8.2 -16.7 -0.1 -16.7C8 -16.7 16 -8.3 16 -0.2Z" fill="#fff"></path></g><g transform="translate(1072 75)"><path d="M9.8 -0.2C9.8 4.4 4.9 8.9 0.1 8.9C-4.8 8.9 -9.6 4.4 -9.6 -0.2C-9.6 -4.8 -4.8 -9.6 0.1 -9.6C4.9 -9.6 9.8 -4.8 9.8 -0.2Z" fill="#fff"></path></g><g transform="translate(7 1036)"><path d="M11.9 0.2C11.9 6.3 6 12.6 0 12.6C-5.9 12.6 -11.8 6.3 -11.8 0.2C-11.8 -5.9 -5.9 -11.7 0 -11.7C6 -11.7 11.9 -5.9 11.9 0.2Z" fill="#fff"></path></g><g transform="translate(239 92)"><path d="M5.4 0C5.4 3 2.7 6 -0.2 6C-3 6 -6 3 -6 0C-6 -3 -3 -6 -0.2 -6C2.7 -6 5.4 -3 5.4 0Z" fill="#fff"></path></g><g transform="translate(1343 801)"><path d="M7.4 0.1C7.4 3.9 3.7 7.9 0 7.9C-3.7 7.9 -7.5 3.9 -7.5 0.1C-7.5 -3.8 -3.7 -7.6 0 -7.6C3.7 -7.6 7.4 -3.8 7.4 0.1Z" fill="#fff"></path></g><g transform="translate(725 517)"><path d="M12.6 0.2C12.6 6 6.3 12 0.1 12C-6.2 12 -12.3 6 -12.3 0.2C-12.3 -5.7 -6.2 -11.3 0.1 -11.3C6.3 -11.3 12.6 -5.7 12.6 0.2Z" fill="#fff"></path></g><g transform="translate(148 367)"><path d="M9.7 -0.2C9.7 4.7 4.8 9.4 0 9.4C-4.8 9.4 -9.5 4.7 -9.5 -0.2C-9.5 -5.1 -4.8 -10.1 0 -10.1C4.8 -10.1 9.7 -5.1 9.7 -0.2Z" fill="#fff"></path></g><g transform="translate(892 405)"><path d="M6.4 -0.1C6.4 2.9 3.2 5.8 0 5.8C-3.2 5.8 -6.5 2.9 -6.5 -0.1C-6.5 -3.1 -3.2 -6.2 0 -6.2C3.2 -6.2 6.4 -3.1 6.4 -0.1Z" fill="#fff"></path></g><g transform="translate(364 1014)"><path d="M7.2 -0.1C7.2 3.6 3.6 7.2 -0.1 7.2C-3.9 7.2 -7.7 3.6 -7.7 -0.1C-7.7 -3.7 -3.9 -7.4 -0.1 -7.4C3.6 -7.4 7.2 -3.7 7.2 -0.1Z" fill="#fff"></path></g><g transform="translate(1846 211)"><path d="M14.7 -0.1C14.7 7 7.3 14.1 -0.3 14.1C-7.9 14.1 -15.8 7 -15.8 -0.1C-15.8 -7.3 -7.9 -14.6 -0.3 -14.6C7.3 -14.6 14.7 -7.3 14.7 -0.1Z" fill="#fff"></path></g><g transform="translate(1748 937)"><path d="M10 -0.1C10 4.9 5 9.8 0.2 9.8C-4.5 9.8 -9 4.9 -9 -0.1C-9 -5 -4.5 -10 0.2 -10C5 -10 10 -5 10 -0.1Z" fill="#fff"></path></g><g transform="translate(752 256)"><path d="M9 0.1C9 4.3 4.5 8.7 0 8.7C-4.4 8.7 -8.9 4.3 -8.9 0.1C-8.9 -4.2 -4.4 -8.4 0 -8.4C4.5 -8.4 9 -4.2 9 0.1Z" fill="#fff"></path></g><g transform="translate(1257 334)"><path d="M12.2 -0.3C12.2 5.6 6.1 11.2 -0.1 11.2C-6.3 11.2 -12.6 5.6 -12.6 -0.3C-12.6 -6.1 -6.3 -12.3 -0.1 -12.3C6.1 -12.3 12.2 -6.1 12.2 -0.3Z" fill="#fff"></path></g></g></svg>