<svg id="visual" viewBox="0 0 1920 1080" width="1920" height="1080" xmlns="http://www.w3.org/2000/svg" xmlns:xlink="http://www.w3.org/1999/xlink" version="1.1"><g><g transform="translate(76 148)"><path d="M16 0.1C16 7.9 8 15.9 0.1 15.9C-7.8 15.9 -15.5 7.9 -15.5 0.1C-15.5 -7.7 -7.8 -15.4 0.1 -15.4C8 -15.4 16 -7.7 16 0.1Z" fill="#fff"></path></g><g transform="translate(149 880)"><path d="M6.2 0C6.2 3.3 3.1 6.5 -0.1 6.5C-3.3 6.5 -6.5 3.3 -6.5 0C-6.5 -3.2 -3.3 -6.3 -0.1 -6.3C3.1 -6.3 6.2 -3.2 6.2 0Z" fill="#fff"></path></g><g transform="translate(386 942)"><path d="M10.9 0C10.9 5.4 5.5 10.8 -0.3 10.8C-6 10.8 -12 5.4 -12 0C-12 -5.3 -6 -10.6 -0.3 -10.6C5.5 -10.6 10.9 -5.3 10.9 0Z" fill="#fff"></path></g><g transform="translate(520 578)"><path d="M13.4 -0.1C13.4 6.4 6.7 12.8 -0.1 12.8C-6.8 12.8 -13.6 6.4 -13.6 -0.1C-13.6 -6.5 -6.8 -13.1 -0.1 -13.1C6.7 -13.1 13.4 -6.5 13.4 -0.1Z" fill="#fff"></path></g><g transform="translate(536 316)"><path d="M13.8 -0.1C13.8 7 6.9 13.9 0.1 13.9C-6.8 13.9 -13.6 7 -13.6 -0.1C-13.6 -7.2 -6.8 -14.4 0.1 -14.4C6.9 -14.4 13.8 -7.2 13.8 -0.1Z" fill="#fff"></path></g><g transform="translate(1249 276)"><path d="M7.9 0C7.9 4 4 7.9 -0.1 7.9C-4.1 7.9 -8.2 4 -8.2 0C-8.2 -3.9 -4.1 -7.9 -0.1 -7.9C4 -7.9 7.9 -3.9 7.9 0Z" fill="#fff"></path></g><g transform="translate(1006 967)"><path d="M14.2 -0.1C14.2 7.1 7.1 14.1 0 14.1C-7 14.1 -14.1 7.1 -14.1 -0.1C-14.1 -7.2 -7 -14.5 0 -14.5C7.1 -14.5 14.2 -7.2 14.2 -0.1Z" fill="#fff"></path></g><g transform="translate(35 181)"><path d="M8.2 0.1C8.2 4.6 4.1 9.2 -0.1 9.2C-4.2 9.2 -8.4 4.6 -8.4 0.1C-8.4 -4.4 -4.2 -8.7 -0.1 -8.7C4.1 -8.7 8.2 -4.4 8.2 0.1Z" fill="#fff"></path></g><g transform="translate(1658 865)"><path d="M11.7 -0.2C11.7 6.2 5.9 12.3 -0.3 12.3C-6.4 12.3 -12.8 6.2 -12.8 -0.2C-12.8 -6.6 -6.4 -13.3 -0.3 -13.3C5.9 -13.3 11.7 -6.6 11.7 -0.2Z" fill="#fff"></path></g><g transform="translate(1632 296)"><path d="M13.3 -0.3C13.3 6.1 6.7 12.3 0.1 12.3C-6.5 12.3 -12.9 6.1 -12.9 -0.3C-12.9 -6.7 -6.5 -13.3 0.1 -13.3C6.7 -13.3 13.3 -6.7 13.3 -0.3Z" fill="#fff"></path></g><g transform="translate(1644 513)"><path d="M7.8 0.2C7.8 4 3.9 7.9 0.2 7.9C-3.5 7.9 -7.1 4 -7.1 0.2C-7.1 -3.6 -3.5 -7.2 0.2 -7.2C3.9 -7.2 7.8 -3.6 7.8 0.2Z" fill="#fff"></path></g><g transform="translate(1572 371)"><path d="M6.4 0C6.4 3.2 3.2 6.3 0 6.3C-3.2 6.3 -6.5 3.2 -6.5 0C-6.5 -3.1 -3.2 -6.2 0 -6.2C3.2 -6.2 6.4 -3.1 6.4 0Z" fill="#fff"></path></g><g transform="translate(1842 802)"><path d="M5.7 0C5.7 2.8 2.9 5.7 0.1 5.7C-2.7 5.7 -5.4 2.8 -5.4 0C-5.4 -2.9 -2.7 -5.8 0.1 -5.8C2.9 -5.8 5.7 -2.9 5.7 0Z" fill="#fff"></path></g></g></svg>